# xmcd CD database file
#
# Track frame offsets:
#	150
#	18852
#	32177
#	50167
#	65277
#	81440
#	97147
#	113810
#	133002
#	149805
#	162900
#	176597
#	197157
#	215182
#	230012
#	255602
#	272400
#
# Disc length: 3778 seconds
#
# Revision: 2
# Processed by: cddbd v1.5.2PL0 Copyright (c) Steve Scherf et al.
# Submitted via: CDex 1.51
#
DISCID=070ec011
DTITLE=jeff wilkinson - ballads in plain talk
DYEAR=1987
DGENRE=Folk
TTITLE0=big blue road
TTITLE1=one eye blind
TTITLE2=little italy
TTITLE3=2ft. high umbrella man
TTITLE4=breakfast at joe`s
TTITLE5=billy sunday
TTITLE6=pitchin`pennies
TTITLE7=life on a political map
TTITLE8=christmas city
TTITLE9=shelter of her wings
TTITLE10=tell the man in the moon
TTITLE11=postage due
TTITLE12=side of the road blues
TTITLE13=c`mon down
TTITLE14=buffalo bill
TTITLE15=down in toledo
TTITLE16=debbie lee
EXTD=YEAR: 1987
EXTT0=
EXTT1=
EXTT2=
EXTT3=
EXTT4=
EXTT5=
EXTT6=
EXTT7=
EXTT8=
EXTT9=
EXTT10=
EXTT11=
EXTT12=
EXTT13=
EXTT14=
EXTT15=
EXTT16=
PLAYORDER=
